# xmcd
#
# Track frame offsets: 
#        183
#        20433
#        37545
#        47183
#        59870
#        78933
#        94620
#        108870
#        122508
#        140045
#        154720
#        173670
#        184745
#        201970
#        214333
#        227395
#
# Disc length: 3255 seconds
#
# Revision: 0
# Processed by: cddbd v1.5.2PL0 Copyright (c) Steve Scherf et al.
# Submitted via: ExactAudioCopy v0.99pb4
#
DISCID=cf0cb510
DTITLE=Gil Ventura - Sammer Sax
DYEAR=1997
DGENRE=Instrumental Pop
TTITLE0=Ramaya
TTITLE1=Tequila
TTITLE2=Europa
TTITLE3=Manana
TTITLE4=Soleado
TTITLE5=Bobo Step
TTITLE6=Samba Paty
TTITLE7=Limbo Rok
TTITLE8=Blak Is Blak
TTITLE9=El Condor Pasa
TTITLE10=Linda Bella linda
TTITLE11=Blue Spanish
TTITLE12=Scotch Machine
TTITLE13=One For You One For Me
TTITLE14=Honky Thonk Train Buel
TTITLE15=La Virgen De La Macarena
EXTD=
EXTT0=
EXTT1=
EXTT2=
EXTT3=
EXTT4=
EXTT5=
EXTT6=
EXTT7=
EXTT8=
EXTT9=
EXTT10=
EXTT11=
EXTT12=
EXTT13=
EXTT14=
EXTT15=
PLAYORDER=
